<svg width="313" height="259" viewBox="0 0 313 259" fill="none" xmlns="http://www.w3.org/2000/svg">
<path d="M0.415093 166.101C-9.58491 139.601 164.415 186.601 164.415 186.601L312.915 258.101H0.415039C0.415039 258.101 10.4151 192.601 0.415093 166.101Z" fill="#EF5DA8" style="mix-blend-mode:multiply"/>
<path d="M284.415 176.101C294.415 149.601 120.415 196.601 120.415 196.601L0.415039 258.101H312.915C312.915 258.101 274.415 202.601 284.415 176.101Z" fill="#EF5DA8" style="mix-blend-mode:multiply"/>
<path d="M187.845 39.5105H174.19C169.218 39.5105 165.186 35.4786 165.186 30.5031C165.186 25.531 169.218 21.4991 174.19 21.4991H187.738" stroke="white" stroke-width="2" stroke-linecap="round" stroke-linejoin="round"/>
<path d="M175.727 30.2974H174.683" stroke="white" stroke-width="2" stroke-linecap="round" stroke-linejoin="round"/>
<path d="M140.187 16.5625H154.451" stroke="white" stroke-width="2" stroke-linecap="round" stroke-linejoin="round"/>
<path fill-rule="evenodd" clip-rule="evenodd" d="M123 31C123 8.49833 131.168 1 155.677 1C180.183 1 188.35 8.49833 188.35 31C188.35 53.4983 180.183 61 155.677 61C131.168 61 123 53.4983 123 31Z" stroke="white" stroke-width="2" stroke-linecap="round" stroke-linejoin="round"/>
</svg>
